<svg width="16" height="16" viewBox="0 0 16 16" fill="none" xmlns="http://www.w3.org/2000/svg">
<path d="M15.031 7.06274H13.4038C13.3114 7.06274 13.223 7.10292 13.1607 7.17323L8.76318 12.2418V0.929483C8.76318 0.84109 8.69086 0.768768 8.60247 0.768768H7.39711C7.30872 0.768768 7.2364 0.84109 7.2364 0.929483V12.2418L2.83885 7.17323C2.77858 7.10292 2.69019 7.06274 2.59577 7.06274H0.968539C0.831932 7.06274 0.757601 7.22547 0.848003 7.32792L7.51564 15.0121C7.57591 15.0816 7.65042 15.1374 7.73413 15.1756C7.81783 15.2138 7.90878 15.2336 8.00079 15.2336C8.09281 15.2336 8.18375 15.2138 8.26746 15.1756C8.35117 15.1374 8.42568 15.0816 8.48595 15.0121L15.1516 7.32792C15.242 7.22346 15.1676 7.06274 15.031 7.06274Z" fill="black" fill-opacity="0.85"/>
</svg>
