<svg width="171" height="28" viewBox="0 0 171 28" fill="none" xmlns="http://www.w3.org/2000/svg">
<path d="M14.6684 9.88108C15.3936 10.6319 15.96 11.5212 16.3338 12.4958C16.7076 13.4704 16.881 14.5104 16.8439 15.5536C14.8107 15.2486 13.7535 15.0859 11.6797 14.6996C11.7062 13.8129 11.442 12.9418 10.9274 12.2192C10.3718 11.5401 9.59407 11.0792 8.73161 10.918C8.32504 10.7742 7.88704 10.7437 7.46446 10.8296C7.04188 10.9156 6.6506 11.1148 6.3325 11.4059C5.73437 12.1889 5.45799 13.1707 5.5599 14.1507V15.7162C5.52638 16.7787 5.79423 17.8289 6.3325 18.7456C6.60089 19.1452 6.9489 19.4851 7.35472 19.744C7.76055 20.0028 8.21545 20.1752 8.69095 20.2501C9.08177 20.3794 9.49666 20.4191 9.90491 20.3663C10.3132 20.3135 10.7043 20.1696 11.0494 19.9451C11.3396 19.6755 11.5639 19.3428 11.705 18.9726C11.846 18.6024 11.8999 18.2047 11.8627 17.8103C13.8958 18.1966 14.8514 18.3593 16.8439 18.6439C16.9386 19.5712 16.8026 20.5076 16.4479 21.3696C16.0931 22.2316 15.5307 22.9925 14.8107 23.5845C13.9104 24.129 12.9046 24.4759 11.86 24.6021C10.8155 24.7283 9.75601 24.6309 8.75194 24.3164C6.1982 23.8443 3.89764 22.4741 2.26621 20.4534C0.729538 18.3999 -0.0530507 15.8798 0.0500802 13.3171C-0.082761 12.2376 0.0496377 11.142 0.435803 10.1252C0.821969 9.10841 1.45025 8.20113 2.26621 7.48197C3.24975 6.94545 4.33355 6.61794 5.44962 6.51998C6.56569 6.42202 7.68997 6.55571 8.75194 6.91269C10.9781 7.28362 13.0403 8.31826 14.6684 9.88108Z" fill="#231F20"/>
<path d="M19.731 9.02716C21.8861 9.27114 22.984 9.3728 25.1391 9.53545V22.0393C28.5751 22.3036 30.3033 22.3646 33.7393 22.4256V26.7155C29.0553 26.7038 24.3767 26.3982 19.731 25.8006V9.02716Z" fill="#231F20"/>
<path d="M50.655 11.2839C51.4858 12.0933 52.1279 13.0759 52.5356 14.1618C52.9432 15.2477 53.1064 16.4102 53.0135 17.5663C53.0972 18.7925 52.9313 20.0228 52.526 21.183C52.1206 22.3432 51.4841 23.4092 50.655 24.3164C48.8403 26.0252 46.4383 26.9715 43.9456 26.9595C42.7482 27.0863 41.5374 26.9717 40.385 26.6225C39.2326 26.2733 38.1619 25.6965 37.2363 24.9263C36.414 24.0693 35.781 23.0491 35.3782 21.9318C34.9754 20.8146 34.8119 19.6251 34.8981 18.4406C34.8131 17.2562 34.9773 16.0671 35.38 14.95C35.7827 13.8329 36.415 12.8126 37.2363 11.9549C39.1129 10.3792 41.4956 9.53445 43.9456 9.57607C46.3177 9.27447 48.7158 9.8849 50.655 11.2839ZM41.3025 14.6589C40.6766 15.4718 40.3596 16.4805 40.408 17.5053V19.0709C40.3567 20.0836 40.6745 21.0805 41.3025 21.8766C41.6419 22.2258 42.0561 22.4932 42.514 22.6588C42.9719 22.8243 43.4615 22.8836 43.9456 22.8322C44.447 22.8372 44.9435 22.7324 45.4001 22.5252C45.8567 22.318 46.2624 22.0133 46.5887 21.6326C47.2296 20.8109 47.5542 19.7864 47.5036 18.7456V17.2004C47.5556 16.1904 47.2294 15.1974 46.5887 14.415C46.2431 14.0767 45.8268 13.8192 45.3698 13.661C44.9128 13.5028 44.4264 13.4478 43.9456 13.5C43.4478 13.4927 42.9542 13.5923 42.4982 13.7923C42.0422 13.9922 41.6344 14.2878 41.3025 14.6589Z" fill="#231F20"/>
<path d="M70.4577 22.4256C68.7662 23.9434 66.6236 24.8647 64.3583 25.0483C62.2268 25.4795 60.0111 25.0872 58.1572 23.9504C57.4075 23.3586 56.8164 22.59 56.4367 21.7136C56.0571 20.8372 55.9007 19.8803 55.9818 18.9286V8.90516C58.1369 8.70185 59.2145 8.57986 61.3696 8.33588V18.217C61.3221 19.0132 61.5927 19.7956 62.1218 20.3924C62.4171 20.6537 62.7699 20.8414 63.1515 20.9404C63.5331 21.0393 63.9327 21.0466 64.3176 20.9617C64.745 20.9325 65.162 20.8165 65.543 20.6207C65.924 20.425 66.2612 20.1536 66.5338 19.8231C67.0582 19.1589 67.3318 18.331 67.3064 17.485V7.58362C69.4615 7.31931 70.5391 7.15666 72.6942 6.85168V16.8751C72.7284 17.905 72.5471 18.9307 72.162 19.8865C71.7769 20.8422 71.1964 21.7071 70.4577 22.4256Z" fill="#231F20"/>
<path d="M92.3143 12.3006C92.3143 17.8985 89.3798 21.138 83.5108 22.019L76.2524 23.1169V6.32312L83.5108 5.24555C89.3933 4.40519 92.3278 6.75686 92.3143 12.3006ZM81.6403 18.217L83.4091 18.0137C83.9023 17.9783 84.3833 17.8439 84.8234 17.6185C85.2635 17.3931 85.6536 17.0813 85.9705 16.7018C86.2875 16.3223 86.5246 15.8827 86.6679 15.4095C86.8112 14.9363 86.8576 14.439 86.8045 13.9474V12.4022C86.8045 9.98278 85.6862 8.94588 83.4091 9.27118L81.6403 9.55582V18.217Z" fill="#231F20"/>
<path d="M107.563 2.80571C108.213 3.15095 108.75 3.67551 109.11 4.31705C109.47 4.95859 109.639 5.69013 109.596 6.42471V6.70935L104.533 7.33962C104.592 7.10142 104.583 6.85164 104.507 6.61824C104.432 6.38484 104.293 6.17704 104.106 6.01808C103.87 5.8595 103.603 5.75223 103.323 5.7032C103.043 5.65417 102.756 5.66447 102.48 5.73344C101.895 5.78401 101.331 5.97211 100.833 6.28239C100.672 6.36507 100.534 6.4863 100.431 6.63529C100.328 6.78428 100.264 6.95639 100.243 7.13631C100.243 7.5836 100.508 7.86824 101.036 8.01056C101.859 8.19153 102.696 8.30038 103.537 8.33586C104.657 8.39635 105.772 8.53905 106.871 8.76282C107.738 8.9844 108.526 9.44185 109.149 10.0844C109.491 10.435 109.759 10.8523 109.933 11.3105C110.108 11.7686 110.187 12.2579 110.165 12.7478C110.205 13.6277 110.043 14.5051 109.69 15.3123C109.338 16.1195 108.805 16.835 108.132 17.4037C106.573 18.608 104.705 19.348 102.744 19.5385C100.706 19.9409 98.5973 19.7792 96.6447 19.0709C95.8842 18.6511 95.2691 18.0105 94.8806 17.2336C94.4922 16.4567 94.3487 15.5801 94.4692 14.7199L99.6741 13.9473C99.6741 14.8013 99.8977 15.3299 100.325 15.5535C100.976 15.7904 101.68 15.8397 102.358 15.6958C102.94 15.6357 103.51 15.4848 104.045 15.2486C104.245 15.1764 104.417 15.0434 104.538 14.8684C104.658 14.6934 104.72 14.485 104.716 14.2726C104.714 14.0693 104.638 13.8736 104.504 13.7208C104.37 13.568 104.186 13.4681 103.984 13.4391C103.18 13.278 102.364 13.1761 101.545 13.1341C100.411 13.0549 99.2842 12.9055 98.1695 12.6868C97.2824 12.5033 96.465 12.0735 95.8111 11.4466C95.4602 11.0689 95.1908 10.6232 95.0194 10.137C94.848 9.65088 94.7784 9.13469 94.8149 8.6205C94.7761 7.78194 94.9408 6.94644 95.2948 6.18528C95.6488 5.42413 96.1817 4.75989 96.848 4.24924C98.4424 3.11116 100.307 2.41021 102.256 2.2161C104.044 1.86394 105.896 2.06978 107.563 2.80571Z" fill="#231F20"/>
<path d="M125.455 16.9564C124.58 12.8901 124.153 10.857 123.279 6.7907C122.425 10.857 121.978 13.0121 121.124 17.1597C118.745 17.3427 117.566 17.4444 115.187 17.668C113.622 11.101 112.829 7.82761 111.263 1.40287C113.398 1.13856 114.516 1.01657 116.773 0.813258L118.806 10.1454C119.579 6.28242 119.945 4.35093 120.717 0.487955C122.832 0.325303 123.889 0.243977 126.105 0.14232C126.898 3.90364 127.305 5.79446 128.138 9.57611C128.85 5.73347 129.216 3.82231 129.948 0C131.981 0 133.16 0 135.315 0C133.729 6.70938 132.957 10.1657 131.391 16.8141C129.013 16.7938 127.833 16.8344 125.455 16.9564Z" fill="#231F20"/>
<path d="M148.47 17.3223L147.758 14.9029C145.4 14.6792 144.22 14.5979 141.882 14.4963L141.171 16.8344C138.955 16.7327 137.857 16.7124 135.661 16.7124C138.101 10.003 139.321 6.66866 141.76 0.0812683C144.403 0.182926 145.562 0.264251 148.063 0.508229C150.523 7.44125 151.743 10.9383 154.163 18.0136C151.906 17.6883 150.767 17.546 148.47 17.3223ZM143.021 10.7959C144.464 10.7959 145.196 10.9179 146.66 11.0399L144.891 4.94048C144.078 7.2786 143.732 8.43749 143.021 10.7959Z" fill="#231F20"/>
<path d="M168.415 4.89989C169.219 5.59984 169.869 6.4581 170.326 7.42099C170.767 8.37021 170.996 9.40388 170.997 10.4504V10.7553C171.03 11.6824 170.797 12.5995 170.326 13.3984C169.878 14.0844 169.2 14.5888 168.415 14.8216C167.505 15.0865 166.539 15.0865 165.629 14.8216C164.023 14.415 163.23 14.232 161.563 13.8864V19.3149C159.408 18.8676 158.33 18.6643 156.175 18.3186V1.52487C159.347 2.03593 162.489 2.71459 165.589 3.55802C166.628 3.76153 167.6 4.22294 168.415 4.89989ZM161.604 9.96242L163.84 10.4504C164.049 10.5289 164.273 10.5588 164.495 10.5377C164.717 10.5165 164.931 10.4449 165.121 10.3284C165.272 10.1909 165.39 10.0201 165.464 9.82964C165.538 9.63914 165.567 9.43405 165.548 9.23049V9.02718C165.561 8.55712 165.41 8.09728 165.121 7.72596C164.801 7.33023 164.344 7.06904 163.84 6.99403L161.604 6.50608V9.96242Z" fill="#231F20"/>
</svg>
